<?xml version="1.0" standalone="no"?>
<!DOCTYPE svg PUBLIC "-//W3C//DTD SVG 20010904//EN"
 "http://www.w3.org/TR/2001/REC-SVG-20010904/DTD/svg10.dtd">
<svg version="1.0" xmlns="http://www.w3.org/2000/svg"
 width="512.000000pt" height="512.000000pt" viewBox="0 0 512.000000 512.000000"
 preserveAspectRatio="xMidYMid meet">
<metadata>
Created by potrace 1.11, written by Peter Selinger 2001-2013
</metadata>
<g transform="translate(0.000000,512.000000) scale(0.100000,-0.100000)"
fill="#000000" stroke="none">
<path d="M1710 4940 c-41 -41 -14 -110 42 -110 13 0 35 11 47 24 56 59 -32
143 -89 86z"/>
<path d="M2800 4700 c-58 -17 -137 -66 -186 -114 -60 -61 -98 -130 -118 -217
-17 -70 -18 -72 -38 -64 -16 7 -18 93 -3 148 11 41 53 125 87 174 16 24 26 43
22 43 -3 0 -36 -30 -73 -67 -90 -91 -129 -160 -146 -263 -3 -19 -7 -35 -8 -36
-1 -1 -24 -5 -52 -8 -150 -19 -213 -32 -333 -72 -83 -27 -106 -31 -115 -21
-16 17 -106 114 -241 260 -77 83 -112 114 -118 105 -18 -30 -59 -184 -74 -280
-15 -104 -17 -262 -3 -351 8 -47 7 -50 -40 -110 -86 -110 -144 -226 -177 -357
-18 -71 -23 -231 -10 -321 l8 -57 -101 2 c-56 0 -101 -2 -101 -6 0 -7 156 -14
195 -9 10 1 35 -53 35 -76 0 -6 -28 -13 -63 -17 -77 -8 -120 -16 -127 -23 -5
-5 45 -1 152 13 l46 6 21 -47 c25 -56 24 -55 9 -55 -26 0 -238 -71 -238 -80 0
-5 24 -1 53 9 83 30 185 61 199 60 7 0 33 -31 58 -70 80 -125 231 -260 396
-354 87 -50 79 -54 -45 -25 -115 28 -214 69 -339 142 -70 40 -118 62 -139 62
-73 0 -158 -97 -166 -189 -6 -68 9 -101 61 -137 132 -92 358 -193 472 -213 19
-3 42 -8 51 -10 44 -14 258 -21 332 -11 15 2 27 0 27 -3 0 -3 -18 -51 -39
-107 -105 -269 -142 -525 -107 -720 8 -44 18 -104 21 -134 3 -30 10 -89 15
-130 5 -41 11 -102 15 -135 3 -33 8 -80 10 -105 3 -25 7 -65 9 -90 3 -25 8
-72 12 -105 4 -33 8 -81 8 -107 1 -25 4 -44 9 -41 4 2 7 -3 7 -12 0 -28 39
-85 59 -85 6 0 11 -4 11 -10 0 -5 7 -10 15 -10 8 0 15 -4 15 -10 0 -5 6 -9 13
-7 6 1 11 -4 9 -11 -1 -8 2 -11 8 -7 5 3 26 3 45 -1 27 -5 35 -10 30 -22 -4
-11 -2 -12 7 -5 19 15 82 10 104 -7 17 -13 18 -13 7 1 -11 13 -7 17 22 29 21
8 36 22 40 37 4 16 12 23 31 23 16 0 23 -4 18 -12 -5 -7 -3 -8 5 -4 7 5 10 11
7 14 -4 3 0 15 8 27 31 47 21 76 -37 103 -51 23 -72 31 -91 34 -11 2 -19 7
-19 11 0 4 24 90 53 191 l53 184 121 -4 c67 -2 123 -4 126 -4 3 0 5 -80 5
-178 0 -97 4 -180 8 -183 5 -3 9 -22 10 -41 1 -20 5 -34 10 -31 4 2 7 -1 7 -8
0 -48 197 -138 277 -126 62 8 67 11 82 39 7 16 20 28 28 28 8 0 11 -5 8 -13
-4 -6 0 -4 8 5 8 10 20 18 26 18 7 0 9 5 6 10 -3 6 1 10 10 10 10 0 13 -5 9
-12 -4 -6 -3 -8 3 -5 14 9 75 -12 68 -23 -3 -4 1 -8 8 -7 6 0 21 -1 32 -2 17
-1 18 -3 5 -12 -13 -9 -12 -10 3 -5 10 3 44 -3 75 -14 78 -28 86 -26 108 21
18 40 18 42 -1 55 -30 22 -204 109 -257 129 -27 10 -48 23 -48 29 0 9 165 434
191 491 5 11 54 135 109 275 55 140 105 264 110 275 5 11 55 137 111 280 56
143 107 265 113 272 13 14 146 60 196 68 45 7 106 56 126 103 24 55 22 139 -4
192 -22 46 -89 100 -124 100 -15 0 -16 3 -6 25 7 16 17 24 26 20 23 -9 48 12
61 53 12 35 16 38 42 34 55 -8 55 -8 174 298 42 107 82 209 90 225 7 17 18 47
25 68 16 51 -2 77 -71 101 -30 10 -58 22 -64 26 -5 4 -40 17 -77 30 -96 33
-97 32 -186 -192 l-73 -184 -75 -2 c-40 -1 -74 2 -74 7 0 4 5 33 11 62 12 63
14 188 4 250 -3 24 -9 57 -11 73 -3 16 -21 70 -40 120 -19 50 -35 96 -36 101
0 19 14 120 18 127 6 9 5 245 -1 293 -12 94 -59 277 -81 317 -4 7 -125 -118
-277 -286 l-45 -50 -103 52 c-130 64 -158 76 -239 98 -36 9 -69 20 -73 24 -10
9 -21 91 -21 160 0 74 19 110 74 138 62 32 162 26 246 -15 55 -27 154 -114
202 -178 12 -17 8 -6 -9 25 -74 131 -175 235 -276 285 -47 23 -73 29 -138 31
-44 1 -91 -1 -105 -6z m1035 -1657 c-4 -10 -12 -31 -17 -46 -11 -29 -11 -29
-77 -22 -36 4 -68 8 -69 10 -2 2 1 19 7 37 l11 33 76 3 c70 2 76 1 69 -15z
m-60 -88 c11 -2 21 -4 22 -4 2 -1 -6 -23 -17 -51 -11 -27 -17 -50 -13 -50 3 0
4 -2 2 -5 -3 -2 -21 0 -40 6 -19 5 -41 12 -49 14 -8 2 -24 7 -36 12 -20 8 -20
9 -3 49 18 41 19 41 66 37 27 -2 57 -5 68 -8z m-74 -111 c35 -9 75 -28 88 -41
25 -24 25 -25 8 -68 -14 -39 -14 -47 -2 -59 8 -8 20 -16 26 -18 17 -6 -20 -88
-58 -129 -28 -29 -53 -42 -136 -67 -56 -17 -131 -37 -167 -43 -64 -11 -256
-14 -295 -5 -11 2 -24 5 -30 5 -5 1 8 11 30 22 167 89 365 272 429 397 10 19
23 31 30 29 6 -3 41 -13 77 -23z m-541 -770 c57 -13 307 -13 375 0 39 8 70 13
71 12 1 -1 -231 -587 -251 -631 -7 -16 -38 -95 -69 -175 -32 -80 -62 -156 -68
-170 -5 -14 -58 -146 -117 -295 -93 -234 -110 -270 -127 -267 -10 2 -22 7 -26
11 -7 6 95 327 183 576 63 180 51 418 -37 700 -14 44 -28 89 -33 100 -5 11
-22 54 -40 95 -17 41 -31 78 -31 81 0 3 33 -3 73 -13 39 -10 83 -21 97 -24z"/>
<path d="M796 4329 c-54 -91 -15 -323 71 -416 58 -64 179 -92 278 -65 55 15
26 27 -58 24 -157 -7 -232 55 -272 224 -19 84 -14 187 12 222 12 16 19 32 16
36 -13 13 -29 5 -47 -25z"/>
<path d="M605 3266 c-159 -74 -138 -306 30 -344 52 -11 92 -6 133 20 114 70
121 232 12 304 -47 31 -131 41 -175 20z"/>
<path d="M4532 2883 c-30 -15 -38 -32 -32 -73 8 -61 115 -56 121 5 3 42 -2 55
-29 69 -25 13 -32 13 -60 -1z"/>
<path d="M4183 2545 c14 -87 81 -176 162 -214 53 -25 61 -26 68 -7 4 10 -3 17
-21 21 -72 15 -168 126 -176 202 -2 17 -10 29 -21 32 -15 3 -17 -2 -12 -34z"/>
<path d="M1280 1925 c-10 -12 -2 -26 51 -82 35 -37 73 -75 84 -84 20 -17 20
-18 -8 -47 -66 -69 -69 -185 -6 -218 17 -8 39 -12 54 -8 52 13 102 107 91 170
-7 36 -25 62 -91 129 -59 60 -61 74 -9 79 35 3 60 -8 97 -42 32 -31 35 -16 8
44 -12 27 -30 46 -54 57 -42 20 -58 21 -117 3 -38 -11 -48 -11 -66 1 -18 12
-23 11 -34 -2z"/>
<path d="M3743 1178 c-6 -7 -23 -68 -38 -135 -26 -111 -30 -121 -47 -112 -28
15 -99 13 -138 -4 -67 -30 -100 -73 -93 -120 5 -38 44 -76 79 -78 13 -1 30 -2
37 -3 6 -1 32 3 56 10 70 20 101 58 126 154 1 3 7 32 15 65 7 33 16 64 20 68
4 4 21 -8 39 -28 33 -38 40 -80 21 -129 -14 -37 3 -32 38 10 57 69 49 131 -28
209 -31 31 -49 58 -45 64 7 12 -11 41 -25 41 -4 0 -12 -6 -17 -12z"/>
<path d="M1855 369 c-4 -6 -5 -12 -2 -15 2 -3 7 2 10 11 7 17 1 20 -8 4z"/>
<path d="M2430 376 c0 -2 8 -10 18 -17 15 -13 16 -12 3 4 -13 16 -21 21 -21
13z"/>
<path d="M2589 363 c-13 -16 -12 -17 4 -4 16 13 21 21 13 21 -2 0 -10 -8 -17
-17z"/>
<path d="M2470 360 c0 -5 5 -10 11 -10 5 0 7 5 4 10 -3 6 -8 10 -11 10 -2 0
-4 -4 -4 -10z"/>
<path d="M1790 337 c0 -2 6 -10 14 -16 11 -9 16 -9 22 1 4 7 4 10 -1 6 -4 -4
-14 -3 -22 3 -7 6 -13 9 -13 6z"/>
<path d="M1874 320 c0 -13 4 -16 10 -10 7 7 7 13 0 20 -6 6 -10 3 -10 -10z"/>
<path d="M1839 313 c-13 -16 -12 -17 4 -4 16 13 21 21 13 21 -2 0 -10 -8 -17
-17z"/>
<path d="M1760 300 c-9 -6 -10 -10 -3 -10 6 0 15 5 18 10 8 12 4 12 -15 0z"/>
<path d="M2470 296 c0 -2 8 -10 18 -17 15 -13 16 -12 3 4 -13 16 -21 21 -21
13z"/>
<path d="M1914 282 c4 -3 14 -7 22 -8 9 -1 13 0 10 4 -4 3 -14 7 -22 8 -9 1
-13 0 -10 -4z"/>
<path d="M2599 273 c-13 -16 -12 -17 4 -4 9 7 17 15 17 17 0 8 -8 3 -21 -13z"/>
<path d="M2546 258 c3 -5 10 -6 15 -3 13 9 11 12 -6 12 -8 0 -12 -4 -9 -9z"/>
<path d="M2350 256 c0 -2 8 -10 18 -17 15 -13 16 -12 3 4 -13 16 -21 21 -21
13z"/>
<path d="M2586 238 c3 -5 10 -6 15 -3 13 9 11 12 -6 12 -8 0 -12 -4 -9 -9z"/>
<path d="M2836 238 c3 -5 10 -6 15 -3 13 9 11 12 -6 12 -8 0 -12 -4 -9 -9z"/>
<path d="M2075 221 c-3 -5 -2 -12 3 -15 5 -3 9 1 9 9 0 17 -3 19 -12 6z"/>
<path d="M3015 220 c3 -5 8 -10 11 -10 2 0 4 5 4 10 0 6 -5 10 -11 10 -5 0 -7
-4 -4 -10z"/>
<path d="M2556 202 c-3 -5 1 -9 9 -9 8 0 12 4 9 9 -3 4 -7 8 -9 8 -2 0 -6 -4
-9 -8z"/>
<path d="M2330 179 c0 -5 5 -7 10 -4 6 3 10 8 10 11 0 2 -4 4 -10 4 -5 0 -10
-5 -10 -11z"/>
</g>
</svg>
